<svg xmlns="http://www.w3.org/2000/svg" fill="none" viewBox="9.395999999999999 0 78.474 76.212" style="max-height: 500px" width="78.474" height="76.212">
<g clip-path="url(#clip0_0_1)">
<path stroke-linejoin="round" stroke-linecap="round" stroke-width="5.33333" stroke="white" d="M23.9277 46.0222L37.8471 31.6608M32.5452 54.3732L46.4645 40.0117M41.1626 62.7242L55.082 48.3628M21.3306 65.7857L25.7061 65.7413L25.4972 55.8982M12.7132 57.4348L17.0887 57.3903L16.8797 47.5472M32.1157 72.0598L32.1296 72.0454M32.8116 71.3417C33.2081 71.7259 33.2181 72.3591 32.8338 72.7557C32.4494 73.1523 31.8163 73.1622 31.4198 72.7779C31.0232 72.3936 31.0132 71.7605 31.3975 71.3639C31.7819 70.9673 32.415 70.9574 32.8116 71.3417Z"/>
</g>
<g clip-path="url(#clip1_0_1)">
<path stroke-linejoin="round" stroke-linecap="round" stroke-width="6.4" stroke="white" fill="#3F83F8" d="M83.582 5.73999L64.42 56.26C63.64 58.318 61.728 58.728 60.174 57.172C60.174 57.172 48.102 45.1 47.002 44C45.902 42.9 46.284 40.738 47.852 39.194L74.484 12.974C76.052 11.43 75.906 11.262 74.158 12.6L44.176 35.568C42.43 36.906 39.728 36.728 38.172 35.172L29.828 26.828C28.272 25.272 28.682 23.362 30.74 22.58L81.26 3.41799C83.318 2.63799 84.362 3.68199 83.582 5.73999ZM40.414 40.242C39.636 39.464 39 39.728 39 40.828V50C39 51.1 39.772 51.536 40.714 50.97L45.516 48.088C46.46 47.522 46.594 46.422 45.816 45.644L40.414 40.242Z"/>
<path fill="#3F83F8" d="M83.582 5.73999L64.42 56.26C63.64 58.318 61.728 58.728 60.174 57.172C60.174 57.172 48.102 45.1 47.002 44C45.902 42.9 46.284 40.738 47.852 39.194L74.484 12.974C76.052 11.43 75.906 11.262 74.158 12.6L44.176 35.568C42.43 36.906 39.728 36.728 38.172 35.172L29.828 26.828C28.272 25.272 28.682 23.362 30.74 22.58L81.26 3.41799C83.318 2.63799 84.362 3.68199 83.582 5.73999ZM40.414 40.242C39.636 39.464 39 39.728 39 40.828V50C39 51.1 39.772 51.536 40.714 50.97L45.516 48.088C46.46 47.522 46.594 46.422 45.816 45.644L40.414 40.242Z"/>
</g>
<defs>
<clipPath id="clip0_0_1">
<rect transform="translate(0 53.4698) rotate(-45.8995)" fill="white" height="48" width="48"/>
</clipPath>
<clipPath id="clip1_0_1">
<rect transform="translate(23)" fill="white" height="64" width="64"/>
</clipPath>
</defs>
</svg>